<svg id="Capa_1" data-name="Capa 1" xmlns="http://www.w3.org/2000/svg" viewBox="0 0 777.49 101.56"><defs><style>.cls-1{font-size:74.55px;font-family:Lato-Regular, Lato;}.cls-1,.cls-5{fill:#bcba77;}.cls-2{letter-spacing:-0.02em;}.cls-3{letter-spacing:-0.01em;}.cls-4{letter-spacing:0em;}</style></defs><text id="texto" class="cls-1" transform="translate(137.23 75.97)">Currency co<tspan class="cls-2" x="396.77" y="0">n</tspan><tspan class="cls-3" x="437.03" y="0">v</tspan><tspan class="cls-4" x="474.23" y="0">erter</tspan></text><path class="cls-5" d="M144.84,225.31l-4.46-26.79a3.6,3.6,0,0,0-4.15-3l-4.95.82a49.34,49.34,0,0,0,.6-7.61,48.32,48.32,0,0,0-14.25-34.4,46.47,46.47,0,0,0-34.4-14.25l-1.15,0A52.24,52.24,0,0,0,67.62,138c-16.54,0-27.89,8.65-33.72,14.57l-5.69-4.07A3.6,3.6,0,0,0,22.56,152l4.49,27a3.6,3.6,0,0,0,3.55,3,4,4,0,0,0,.6-.05l4-.66a49.12,49.12,0,0,0-.56,7.4,48.62,48.62,0,0,0,48.62,48.64c.62,0,1.23,0,1.84,0a52.58,52.58,0,0,0,14.74,2.2c16.54,0,27.89-8.65,33.72-14.57l5.69,4.07a3.63,3.63,0,0,0,2,.67h.17a3.61,3.61,0,0,0,3.5-3.6A3.84,3.84,0,0,0,144.84,225.31ZM83.23,230.2a41.4,41.4,0,0,1-40.5-50.09l15.49-2.57a3.61,3.61,0,0,0,1.51-6.49L53,166.24c2.79-6.12,8.77-14.78,20.88-17.85a41.65,41.65,0,0,1,9.36-1.06,41.42,41.42,0,0,1,40.46,50.31l-14.48,2.41a3.61,3.61,0,0,0-1.51,6.49l6.74,4.81a32.17,32.17,0,0,1-12.74,14.54A41.34,41.34,0,0,1,83.23,230.2Z" transform="translate(-22.51 -138.02)"/><path class="cls-5" d="M85.37,185.21c-6-1.81-7.28-2.75-7.28-5.26s4.08-3.24,6.49-3.24a13.41,13.41,0,0,1,6.64,1.78,1.41,1.41,0,0,0,1.94-.42l3-4.7a1.41,1.41,0,0,0-.42-1.94,20.81,20.81,0,0,0-8.25-2.9v-2.9a1.4,1.4,0,0,0-1.4-1.4H80.54a1.4,1.4,0,0,0-1.4,1.4V169c-5.86,1.55-9.45,5.67-9.45,11,0,9.29,8,11.7,13.24,13.3,5.68,1.71,6.82,2.49,6.8,4.63,0,2.36-3.9,3-6.2,3a11.41,11.41,0,0,1-7.74-3.1,1.4,1.4,0,0,0-2-.06l-4.07,3.85a1.4,1.4,0,0,0,0,2,18.94,18.94,0,0,0,9.45,5.21V212a1.4,1.4,0,0,0,1.4,1.4h5.59a1.4,1.4,0,0,0,1.4-1.4v-3c6.48-1.22,10.6-5.44,10.6-11C98.2,189.1,90.48,186.76,85.37,185.21Z" transform="translate(-22.51 -138.02)"/></svg>